<?xml version="1.0" encoding="utf-8" standalone="no"?>
<!DOCTYPE svg PUBLIC "-//W3C//DTD SVG 1.1//EN"
  "http://www.w3.org/Graphics/SVG/1.1/DTD/svg11.dtd">
<!-- Created with matplotlib (https://matplotlib.org/) -->
<svg height="180pt" version="1.1" viewBox="0 0 648 180" width="648pt" xmlns="http://www.w3.org/2000/svg" xmlns:xlink="http://www.w3.org/1999/xlink">
 <metadata>
  <rdf:RDF xmlns:cc="http://creativecommons.org/ns#" xmlns:dc="http://purl.org/dc/elements/1.1/" xmlns:rdf="http://www.w3.org/1999/02/22-rdf-syntax-ns#">
   <cc:Work>
    <dc:type rdf:resource="http://purl.org/dc/dcmitype/StillImage"/>
    <dc:date>2021-08-21T18:06:42.682673</dc:date>
    <dc:format>image/svg+xml</dc:format>
    <dc:creator>
     <cc:Agent>
      <dc:title>Matplotlib v3.3.4, https://matplotlib.org/</dc:title>
     </cc:Agent>
    </dc:creator>
   </cc:Work>
  </rdf:RDF>
 </metadata>
 <defs>
  <style type="text/css">*{stroke-linecap:butt;stroke-linejoin:round;}</style>
 </defs>
 <g id="figure_1">
  <g id="patch_1">
   <path d="M 0 180 
L 648 180 
L 648 0 
L 0 0 
z
" style="fill:#ffffff;"/>
  </g>
  <g id="axes_1">
   <g id="patch_2">
    <path d="M 14.3 165.7 
L 161.925 165.7 
L 161.925 10.8 
L 14.3 10.8 
z
" style="fill:#ffffff;"/>
   </g>
   <g id="patch_3">
    <path clip-path="url(#p9e083d6d7f)" d="M 21.010227 165.7 
L 34.430682 165.7 
L 34.430682 155.717186 
L 21.010227 155.717186 
z
" style="fill:#008000;opacity:0.8;"/>
   </g>
   <g id="patch_4">
    <path clip-path="url(#p9e083d6d7f)" d="M 34.430678 165.7 
L 47.851133 165.7 
L 47.851133 135.751557 
L 34.430678 135.751557 
z
" style="fill:#008000;opacity:0.8;"/>
   </g>
   <g id="patch_5">
    <path clip-path="url(#p9e083d6d7f)" d="M 47.851133 165.7 
L 61.271588 165.7 
L 61.271588 144.62517 
L 47.851133 144.62517 
z
" style="fill:#008000;opacity:0.8;"/>
   </g>
   <g id="patch_6">
    <path clip-path="url(#p9e083d6d7f)" d="M 61.271588 165.7 
L 74.692043 165.7 
L 74.692043 160.708593 
L 61.271588 160.708593 
z
" style="fill:#008000;opacity:0.8;"/>
   </g>
   <g id="patch_7">
    <path clip-path="url(#p9e083d6d7f)" d="M 74.692043 165.7 
L 88.112498 165.7 
L 88.112498 130.76015 
L 74.692043 130.76015 
z
" style="fill:#008000;opacity:0.8;"/>
   </g>
   <g id="patch_8">
    <path clip-path="url(#p9e083d6d7f)" d="M 88.112498 165.7 
L 101.532953 165.7 
L 101.532953 18.17619 
L 88.112498 18.17619 
z
" style="fill:#008000;opacity:0.8;"/>
   </g>
   <g id="patch_9">
    <path clip-path="url(#p9e083d6d7f)" d="M 101.532953 165.7 
L 114.953408 165.7 
L 114.953408 160.153992 
L 101.532953 160.153992 
z
" style="fill:#008000;opacity:0.8;"/>
   </g>
   <g id="patch_10">
    <path clip-path="url(#p9e083d6d7f)" d="M 114.953408 165.7 
L 128.373863 165.7 
L 128.373863 161.263194 
L 114.953408 161.263194 
z
" style="fill:#008000;opacity:0.8;"/>
   </g>
   <g id="patch_11">
    <path clip-path="url(#p9e083d6d7f)" d="M 128.373865 165.7 
L 141.794318 165.7 
L 141.794318 163.481597 
L 128.373865 163.481597 
z
" style="fill:#008000;opacity:0.8;"/>
   </g>
   <g id="patch_12">
    <path clip-path="url(#p9e083d6d7f)" d="M 141.794318 165.7 
L 155.214773 165.7 
L 155.214773 164.590798 
L 141.794318 164.590798 
z
" style="fill:#008000;opacity:0.8;"/>
   </g>
   <g id="matplotlib.axis_1"/>
   <g id="matplotlib.axis_2"/>
   <g id="patch_13">
    <path d="M 14.3 165.7 
L 14.3 10.8 
" style="fill:none;stroke:#000000;stroke-linecap:square;stroke-linejoin:miter;stroke-width:2;"/>
   </g>
   <g id="patch_14">
    <path d="M 161.925 165.7 
L 161.925 10.8 
" style="fill:none;stroke:#000000;stroke-linecap:square;stroke-linejoin:miter;stroke-width:2;"/>
   </g>
   <g id="patch_15">
    <path d="M 14.3 165.7 
L 161.925 165.7 
" style="fill:none;stroke:#000000;stroke-linecap:square;stroke-linejoin:miter;stroke-width:2;"/>
   </g>
   <g id="patch_16">
    <path d="M 14.3 10.8 
L 161.925 10.8 
" style="fill:none;stroke:#000000;stroke-linecap:square;stroke-linejoin:miter;stroke-width:2;"/>
   </g>
  </g>
 </g>
 <defs>
  <clipPath id="p9e083d6d7f">
   <rect height="154.9" width="147.625" x="14.3" y="10.8"/>
  </clipPath>
 </defs>
</svg>
